<svg width="24" height="24" viewBox="0 0 28 28" fill="none"
     xmlns="http://www.w3.org/2000/svg">
    <path
        d="M14 2C7.4948 2 2 7.4948 2 14C2 20.5052 7.4948 26 14 26C20.5052 26 26 20.5052 26 14C26 7.4948 20.5052 2 14 2ZM14 8C16.0724 8 17.6 9.5264 17.6 11.6C17.6 13.6736 16.0724 15.2 14 15.2C11.9288 15.2 10.4 13.6736 10.4 11.6C10.4 9.5264 11.9288 8 14 8ZM7.8728 19.7264C8.9492 18.1424 10.7444 17.0864 12.8 17.0864H15.2C17.2568 17.0864 19.0508 18.1424 20.1272 19.7264C18.5936 21.368 16.418 22.4 14 22.4C11.582 22.4 9.4064 21.368 7.8728 19.7264Z"
        fill="#FFF"/>
</svg>
