<svg width="24" height="24" viewBox="0 0 28 28" fill="none" xmlns="http://www.w3.org/2000/svg">
    <path d="M24.5264 10.5862L22.8848 5.6614C22.6467 4.94437 22.1886 4.32064 21.5757 3.87881C20.9629 3.43697 20.2263 3.19953 19.4708 3.2002H8.5292C7.77367 3.19953 7.03714 3.43697 6.42426 3.87881C5.81139 4.32064 5.35334 4.94437 5.1152 5.6614L3.4736 10.5862C3.03707 10.7689 2.66427 11.0765 2.40208 11.4704C2.13989 11.8643 2 12.327 2 12.8002V18.8002C2 19.6858 2.4848 20.4514 3.2 20.8678V23.6002C3.2 23.9185 3.32643 24.2237 3.55147 24.4487C3.77652 24.6738 4.08174 24.8002 4.4 24.8002H5.6C5.91826 24.8002 6.22348 24.6738 6.44853 24.4487C6.67357 24.2237 6.8 23.9185 6.8 23.6002V21.2002H21.2V23.6002C21.2 23.9185 21.3264 24.2237 21.5515 24.4487C21.7765 24.6738 22.0817 24.8002 22.4 24.8002H23.6C23.9183 24.8002 24.2235 24.6738 24.4485 24.4487C24.6736 24.2237 24.8 23.9185 24.8 23.6002V20.8678C25.1641 20.659 25.4667 20.358 25.6774 19.995C25.888 19.632 25.9993 19.2199 26 18.8002V12.8002C26 12.327 25.8601 11.8643 25.5979 11.4704C25.3357 11.0765 24.9629 10.7689 24.5264 10.5862ZM8.5292 5.6002H19.4696C19.9868 5.6002 20.4452 5.929 20.6084 6.421L21.9356 10.4002H6.0644L7.3904 6.421C7.47002 6.18195 7.62286 5.97403 7.82726 5.82671C8.03166 5.67938 8.27724 5.60014 8.5292 5.6002ZM6.2 17.6002C5.96354 17.6001 5.72941 17.5535 5.51099 17.4629C5.29256 17.3723 5.0941 17.2396 4.92696 17.0724C4.75981 16.9051 4.62725 16.7066 4.53683 16.4881C4.44642 16.2696 4.39992 16.0355 4.4 15.799C4.40008 15.5625 4.44673 15.3284 4.53729 15.11C4.62785 14.8916 4.76055 14.6931 4.92781 14.526C5.09506 14.3588 5.29361 14.2262 5.51209 14.1358C5.73058 14.0454 5.96474 13.9989 6.2012 13.999C6.67875 13.9992 7.13668 14.189 7.47424 14.5268C7.81181 14.8646 8.00136 15.3226 8.0012 15.8002C8.00104 16.2777 7.81118 16.7357 7.47339 17.0732C7.1356 17.4108 6.67755 17.6004 6.2 17.6002ZM21.8 17.6002C21.5635 17.6001 21.3294 17.5535 21.111 17.4629C20.8926 17.3723 20.6941 17.2396 20.527 17.0724C20.3598 16.9051 20.2272 16.7066 20.1368 16.4881C20.0464 16.2696 19.9999 16.0355 20 15.799C20.0001 15.5625 20.0467 15.3284 20.1373 15.11C20.2279 14.8916 20.3606 14.6931 20.5278 14.526C20.6951 14.3588 20.8936 14.2262 21.1121 14.1358C21.3306 14.0454 21.5647 13.9989 21.8012 13.999C22.2787 13.9992 22.7367 14.189 23.0742 14.5268C23.4118 14.8646 23.6014 15.3226 23.6012 15.8002C23.601 16.2777 23.4112 16.7357 23.0734 17.0732C22.7356 17.4108 22.2775 17.6004 21.8 17.6002Z"
          fill="#fff"/>
</svg>
