<svg width="8" height="4" viewBox="0 0 8 4" fill="none" xmlns="http://www.w3.org/2000/svg">
<path d="M7.87441 0.148122C7.69609 -0.0378351 7.39385 -0.0503979 7.19932 0.120063L4 2.924L0.800679 0.120063C0.622365 -0.0361929 0.353534 -0.0386581 0.17262 0.10525L0.125593 0.148122C-0.052721 0.334079 -0.0395803 0.623013 0.154944 0.793474L3.67713 3.87994C3.67938 3.88191 3.68164 3.88385 3.68392 3.88577L3.64778 3.85188C3.66783 3.87279 3.68945 3.89151 3.71231 3.90803C3.7208 3.9141 3.72938 3.91987 3.7381 3.92535C3.74692 3.93094 3.75604 3.93625 3.76531 3.94124C3.77376 3.94577 3.78214 3.94998 3.79061 3.95393C3.80061 3.9586 3.81096 3.96299 3.82143 3.96701C3.8307 3.9706 3.84008 3.97389 3.84955 3.97688C3.85892 3.97981 3.86828 3.98246 3.8777 3.98484C3.88816 3.98752 3.89873 3.98982 3.90936 3.99177C3.92027 3.99374 3.93126 3.99538 3.94229 3.99666C3.9503 3.99762 3.95847 3.99836 3.96664 3.9989C3.9779 3.99963 3.98909 4 4.00029 4C4.01124 3.99999 4.02226 3.99962 4.03326 3.99889C4.04153 3.99836 4.0497 3.99762 4.05785 3.99667C4.06874 3.99538 4.07973 3.99374 4.09065 3.99173C4.10127 3.98982 4.11184 3.98752 4.12234 3.98487C4.13172 3.98246 4.14108 3.97981 4.15035 3.97688C4.15992 3.97389 4.1693 3.9706 4.1786 3.96702C4.18904 3.96299 4.19939 3.9586 4.20959 3.95384C4.21786 3.94998 4.22624 3.94577 4.23452 3.94131C4.24396 3.93625 4.25308 3.93094 4.26204 3.92531C4.27062 3.91987 4.2792 3.9141 4.28762 3.90801C4.31055 3.89151 4.33217 3.87279 4.35222 3.85188L4.31608 3.88577C4.31836 3.88385 4.32062 3.88191 4.32287 3.87994L7.84506 0.793474C8.03958 0.623013 8.05272 0.334079 7.87441 0.148122Z" fill="#3B227D"/>
</svg>
