<svg width="141" height="65" viewBox="0 0 141 65" fill="none" xmlns="http://www.w3.org/2000/svg">
<path d="M1.66255 38.4401C0.744348 38.4401 0 37.6958 0 36.7776V23.2543C0 22.3361 0.744348 21.5918 1.66255 21.5918C2.58075 21.5918 3.3251 22.3361 3.3251 23.2543V25.0645C3.3251 25.1402 3.28636 25.2107 3.22242 25.2512C3.04911 25.3611 2.84304 25.1991 2.92494 25.011C3.08051 24.6535 3.27784 24.3054 3.51693 23.9666C3.90059 23.4531 4.35886 23.0038 4.89173 22.6187C5.44591 22.2122 6.03207 21.8913 6.65019 21.656C7.28963 21.4206 7.93973 21.303 8.60049 21.303C9.55965 21.303 10.4016 21.4634 11.1263 21.7843C11.851 22.1053 12.4478 22.5866 12.9167 23.2285C13.3362 23.8026 13.6533 24.5051 13.8681 25.336C13.9035 25.4729 13.7784 25.5949 13.6413 25.5605C13.5289 25.5323 13.4677 25.411 13.5116 25.3038L13.6521 24.9615C13.8865 24.4694 14.2063 24.0094 14.6112 23.5815C15.0375 23.1322 15.5171 22.7364 16.05 22.3941C16.5828 22.0518 17.1477 21.7843 17.7445 21.5918C18.3413 21.3992 18.9275 21.303 19.503 21.303C20.7605 21.303 21.7943 21.5597 22.6043 22.0732C23.4355 22.5866 24.0537 23.3675 24.4586 24.4159C24.8849 25.4642 25.0981 26.7693 25.0981 28.3311V36.7776C25.0981 37.6958 24.3537 38.4401 23.4355 38.4401C22.5173 38.4401 21.773 37.6958 21.773 36.7776V28.5237C21.773 27.0902 21.4959 26.0419 20.9417 25.3787C20.4088 24.694 19.5669 24.3517 18.4159 24.3517C17.8191 24.3517 17.2543 24.4587 16.7214 24.6726C16.2098 24.8652 15.7622 25.1433 15.3786 25.507C14.9949 25.8707 14.6965 26.2986 14.4833 26.7907C14.2702 27.2614 14.1636 27.7856 14.1636 28.3632V36.7776C14.1636 37.6958 13.4193 38.4401 12.5011 38.4401C11.5829 38.4401 10.8385 37.6958 10.8385 36.7776V28.4595C10.8385 27.133 10.5508 26.1168 9.97529 25.4107C9.4211 24.7047 8.61115 24.3517 7.54541 24.3517C6.9486 24.3517 6.39442 24.4587 5.88286 24.6726C5.37131 24.8652 4.9237 25.1433 4.54004 25.507C4.15637 25.8493 3.85796 26.2665 3.64482 26.7586C3.43167 27.2293 3.3251 27.7428 3.3251 28.299V36.7776C3.3251 37.6958 2.58075 38.4401 1.66255 38.4401Z" fill="black"/>
<path d="M37.0524 38.7611C35.4112 38.7611 33.9404 38.3867 32.6402 37.6378C31.3614 36.8676 30.3489 35.83 29.6029 34.5249C28.8569 33.1984 28.4839 31.6901 28.4839 29.9999C28.4839 28.3097 28.8569 26.8121 29.6029 25.507C30.3489 24.1805 31.3614 23.1429 32.6402 22.3941C33.9404 21.6239 35.4112 21.2388 37.0524 21.2388C38.6723 21.2388 40.1217 21.6239 41.4006 22.3941C42.7008 23.1429 43.7239 24.1805 44.4699 25.507C45.2159 26.8121 45.5889 28.3097 45.5889 29.9999C45.5889 31.6901 45.2159 33.1984 44.4699 34.5249C43.7239 35.83 42.7008 36.8676 41.4006 37.6378C40.1217 38.3867 38.6723 38.7611 37.0524 38.7611ZM37.0524 35.7444C38.0542 35.7444 38.9494 35.4984 39.738 35.0063C40.5267 34.4928 41.1448 33.8082 41.5924 32.9524C42.04 32.0752 42.2532 31.091 42.2319 29.9999C42.2532 28.8874 42.04 27.9032 41.5924 27.0474C41.1448 26.1703 40.5267 25.4856 39.738 24.9935C38.9494 24.5015 38.0542 24.2554 37.0524 24.2554C36.0506 24.2554 35.1447 24.5122 34.3348 25.0256C33.5461 25.5177 32.928 26.2023 32.4804 27.0795C32.0328 27.9353 31.8196 28.9088 31.8409 29.9999C31.8196 31.091 32.0328 32.0752 32.4804 32.9524C32.928 33.8082 33.5461 34.4928 34.3348 35.0063C35.1447 35.4984 36.0506 35.7444 37.0524 35.7444Z" fill="black"/>
<path d="M50.0086 38.4401C49.5495 38.4401 49.1773 38.068 49.1773 37.6089V23.2383C49.1773 22.329 49.9145 21.5918 50.8239 21.5918C51.7332 21.5918 52.4704 22.329 52.4704 23.2383V24.9442C52.4704 25.0151 52.435 25.0814 52.3761 25.1209C52.2116 25.2309 52.0113 25.0797 52.0905 24.8984C52.3263 24.3589 52.6768 23.8558 53.1418 23.3889C53.76 22.7471 54.4953 22.2336 55.3479 21.8485C56.2005 21.442 57.0744 21.2388 57.9696 21.2388C59.2485 21.2388 60.3142 21.4955 61.1668 22.009C62.0194 22.5011 62.6589 23.2606 63.0852 24.2875C63.5114 25.3145 63.7246 26.6088 63.7246 28.1707V36.7936C63.7246 37.7029 62.9874 38.4401 62.078 38.4401C61.1687 38.4401 60.4315 37.7029 60.4315 36.7936V28.3953C60.4315 27.4325 60.3036 26.6409 60.0478 26.0205C59.792 25.3787 59.3977 24.9187 58.8648 24.6405C58.332 24.341 57.6712 24.2126 56.8826 24.2554C56.2431 24.2554 55.657 24.3624 55.1241 24.5763C54.5912 24.7689 54.1223 25.047 53.7173 25.4107C53.3337 25.7745 53.0246 26.2023 52.7901 26.6944C52.577 27.1651 52.4704 27.6786 52.4704 28.2348V36.8096C52.4704 37.7101 51.7404 38.4401 50.8398 38.4401C50.5628 38.4401 50.2857 38.4401 50.0086 38.4401Z" fill="black"/>
<path d="M75.7374 38.7611C74.0961 38.7611 72.6254 38.3867 71.3252 37.6378C70.0463 36.8676 69.0339 35.83 68.2879 34.5249C67.5418 33.1984 67.1688 31.6901 67.1688 29.9999C67.1688 28.3097 67.5418 26.8121 68.2879 25.507C69.0339 24.1805 70.0463 23.1429 71.3252 22.3941C72.6254 21.6239 74.0961 21.2388 75.7374 21.2388C77.3573 21.2388 78.8067 21.6239 80.0855 22.3941C81.3857 23.1429 82.4089 24.1805 83.1549 25.507C83.9009 26.8121 84.2739 28.3097 84.2739 29.9999C84.2739 31.6901 83.9009 33.1984 83.1549 34.5249C82.4089 35.83 81.3857 36.8676 80.0855 37.6378C78.8067 38.3867 77.3573 38.7611 75.7374 38.7611ZM75.7374 35.7444C76.7391 35.7444 77.6344 35.4984 78.423 35.0063C79.2116 34.4928 79.8298 33.8082 80.2774 32.9524C80.725 32.0752 80.9381 31.091 80.9168 29.9999C80.9381 28.8874 80.725 27.9032 80.2774 27.0474C79.8298 26.1703 79.2116 25.4856 78.423 24.9935C77.6344 24.5015 76.7391 24.2554 75.7374 24.2554C74.7356 24.2554 73.8297 24.5122 73.0197 25.0256C72.2311 25.5177 71.613 26.2023 71.1653 27.0795C70.7177 27.9353 70.5046 28.9088 70.5259 29.9999C70.5046 31.091 70.7177 32.0752 71.1653 32.9524C71.613 33.8082 72.2311 34.4928 73.0197 35.0063C73.8297 35.4984 74.7356 35.7444 75.7374 35.7444Z" fill="black"/>
<g filter="url(#filter0_dd_1_32333)">
<rect x="94.2866" y="15.145" width="29.7099" height="29.71" rx="5.40182" fill="#1A1A1A"/>
<rect x="94.1381" y="14.9965" width="30.007" height="30.0071" rx="5.55037" stroke="#E5E5E5" stroke-width="0.2971"/>
</g>
<path d="M105.507 25.2462C107.2 25.2462 108.543 25.7793 109.537 26.8455C110.494 27.9118 110.972 29.3089 110.972 31.037V31.1731C110.972 32.2249 110.119 33.0775 109.068 33.0775C108.016 33.0775 107.163 32.2249 107.163 31.1731V31.037C107.163 29.6766 106.611 28.9964 105.507 28.9964C104.992 28.9964 104.569 29.1986 104.237 29.6031C103.906 30.0075 103.741 30.5774 103.741 31.3127V32.5519C103.741 33.6037 102.888 34.4563 101.836 34.4563C100.784 34.4563 99.9318 33.6037 99.9318 32.5519V31.3127C99.9318 29.3641 100.41 27.8566 101.367 26.7904C102.287 25.7609 103.667 25.2462 105.507 25.2462ZM112.683 25.2462C114.45 25.2462 115.811 25.7425 116.768 26.7352C117.725 27.7647 118.203 29.2905 118.203 31.3127V32.5519C118.203 33.6037 117.351 34.4563 116.299 34.4563C115.247 34.4563 114.394 33.6037 114.394 32.5519V31.3127C114.394 30.6142 114.247 30.0443 113.953 29.6031C113.622 29.1986 113.198 28.9964 112.683 28.9964C111.542 28.9964 110.972 29.6766 110.972 31.037V31.1731C110.972 32.2249 110.119 33.0775 109.068 33.0775C108.016 33.0775 107.163 32.2249 107.163 31.1731V31.037C107.163 29.3089 107.66 27.9118 108.654 26.8455C109.647 25.7793 110.99 25.2462 112.683 25.2462Z" fill="white"/>
<defs>
<filter id="filter0_dd_1_32333" x="77.3519" y="0.587099" width="63.5794" height="63.5794" filterUnits="userSpaceOnUse" color-interpolation-filters="sRGB">
<feFlood flood-opacity="0" result="BackgroundImageFix"/>
<feColorMatrix in="SourceAlpha" type="matrix" values="0 0 0 0 0 0 0 0 0 0 0 0 0 0 0 0 0 0 127 0" result="hardAlpha"/>
<feOffset dy="2.3768"/>
<feGaussianBlur stdDeviation="8.3188"/>
<feColorMatrix type="matrix" values="0 0 0 0 0 0 0 0 0 0 0 0 0 0 0 0 0 0 0.08 0"/>
<feBlend mode="normal" in2="BackgroundImageFix" result="effect1_dropShadow_1_32333"/>
<feColorMatrix in="SourceAlpha" type="matrix" values="0 0 0 0 0 0 0 0 0 0 0 0 0 0 0 0 0 0 127 0" result="hardAlpha"/>
<feOffset/>
<feGaussianBlur stdDeviation="0.5942"/>
<feColorMatrix type="matrix" values="0 0 0 0 0 0 0 0 0 0 0 0 0 0 0 0 0 0 0.04 0"/>
<feBlend mode="normal" in2="effect1_dropShadow_1_32333" result="effect2_dropShadow_1_32333"/>
<feBlend mode="normal" in="SourceGraphic" in2="effect2_dropShadow_1_32333" result="shape"/>
</filter>
</defs>
</svg>
